<?xml version="1.0" encoding="iso-8859-1"?>
<!-- Uploaded to: SVG Repo, www.svgrepo.com, Generator: SVG Repo Mixer Tools -->
<svg height="800px" width="800px" version="1.1" id="Layer_1" xmlns="http://www.w3.org/2000/svg" xmlns:xlink="http://www.w3.org/1999/xlink" 
	 viewBox="0 0 392.533 392.533" xml:space="preserve">
<path style="fill:#FFFFFF;" d="M359.822,350.522c6.012,0,10.925-4.848,10.925-10.925V119.476c0-6.012-4.848-10.925-10.925-10.925
	H32.711c-6.012,0-10.925,4.848-10.925,10.925v220.057c0,6.012,4.848,10.925,10.925,10.925h327.111V350.522z"/>
<path style="fill:#194F82;" d="M359.822,86.765H194.198l73.697-67.814c4.396-4.073,4.719-10.99,0.646-15.386
	c-4.073-4.396-10.99-4.719-15.386-0.646l-84.622,77.899l-27.216-43.248c-3.168-5.107-9.956-6.659-15.063-3.426
	c-5.107,3.232-6.659,9.956-3.426,15.063l23.661,37.624H32.711C14.675,86.765,0,101.44,0,119.411v220.057
	c0,18.036,14.675,32.711,32.711,32.711H50.23v9.374c0,6.012,4.848,10.925,10.925,10.925s10.925-4.848,10.925-10.925v-9.374h248.501
	v9.374c0,6.012,4.848,10.925,10.925,10.925c6.012,0,10.925-4.848,10.925-10.925v-9.374h17.39c18.036,0,32.711-14.675,32.711-32.711
	V119.476C392.533,101.44,377.859,86.765,359.822,86.765z M370.747,339.597c0,6.012-4.848,10.925-10.925,10.925H32.711
	c-6.012,0-10.925-4.849-10.925-10.925V119.476c0-6.012,4.848-10.925,10.925-10.925h327.111c6.012,0,10.925,4.848,10.925,10.925
	V339.597L370.747,339.597z"/>
<polyline style="fill:#56ACE0;" points="62.966,309.343 241.325,309.343 241.325,149.73 62.966,149.73 "/>
<path style="fill:#194F82;" d="M252.186,127.945H52.105c-6.012,0-10.925,4.848-10.925,10.925v181.269
	c0,6.012,4.848,10.925,10.925,10.925h200.145c6.012,0,10.925-4.848,10.925-10.925V138.87
	C263.111,132.858,258.263,127.945,252.186,127.945z M241.325,309.343H62.966V262.28h22.109c6.012,0,10.925-4.848,10.925-10.925
	c0-6.012-4.848-10.925-10.925-10.925H62.966v-21.786h43.96c6.012,0,10.925-4.848,10.925-10.925c0-6.012-4.848-10.925-10.925-10.925
	h-43.96V149.73h178.36V309.343z"/>
<path style="fill:#FFC10D;" d="M319.806,176.042c-5.301,0-9.632,4.331-9.632,9.632c0,5.301,4.331,9.632,9.632,9.632
	s9.632-4.331,9.632-9.632C329.503,180.373,325.172,176.042,319.806,176.042z"/>
<path style="fill:#194F82;" d="M319.806,154.256c-17.39,0-31.547,14.158-31.547,31.547s14.158,31.547,31.547,31.547
	s31.547-14.158,31.547-31.547C351.354,168.349,337.196,154.256,319.806,154.256z M319.806,195.436c-5.301,0-9.632-4.331-9.632-9.632
	c0-5.301,4.331-9.632,9.632-9.632s9.632,4.331,9.632,9.632C329.438,191.104,325.172,195.436,319.806,195.436z"/>
<path style="fill:#FFC10D;" d="M319.806,263.638c-5.301,0-9.632,4.331-9.632,9.632s4.331,9.632,9.632,9.632s9.632-4.331,9.632-9.632
	C329.568,268.033,325.172,263.638,319.806,263.638z"/>
<path style="fill:#194F82;" d="M319.806,241.852c-17.39,0-31.547,14.158-31.547,31.547s14.158,31.547,31.547,31.547
	s31.547-14.158,31.547-31.547C351.354,256.009,337.196,241.852,319.806,241.852z M319.806,283.031c-5.301,0-9.632-4.331-9.632-9.632
	c0-5.301,4.331-9.632,9.632-9.632s9.632,4.331,9.632,9.632C329.568,278.7,325.172,283.031,319.806,283.031z"/>
</svg>