<?xml version="1.0" encoding="iso-8859-1"?>
<!-- Uploaded to: SVG Repo, www.svgrepo.com, Generator: SVG Repo Mixer Tools -->
<svg fill="#000000" height="800px" width="800px" version="1.1" id="Layer_1" xmlns="http://www.w3.org/2000/svg" xmlns:xlink="http://www.w3.org/1999/xlink" 
	 viewBox="0 0 512 512" xml:space="preserve">
<g>
	<g>
		<path d="M486.4,204.8h-80.009L304.034,68.326c1.929-5.385,3.166-11.093,3.166-17.126C307.2,22.963,284.237,0,256,0
			c-28.237,0-51.2,22.963-51.2,51.2c0,6.033,1.237,11.742,3.166,17.126L105.609,204.8H25.6C11.46,204.8,0,216.26,0,230.4v256
			C0,500.54,11.46,512,25.6,512h460.8c14.14,0,25.6-11.46,25.6-25.6v-256C512,216.26,500.54,204.8,486.4,204.8z M256,25.6
			c14.114,0,25.6,11.486,25.6,25.6S270.114,76.8,256,76.8s-25.6-11.486-25.6-25.6S241.886,25.6,256,25.6z M223.42,90.368
			c8.883,7.398,20.147,12.032,32.58,12.032c12.433,0,23.697-4.634,32.58-12.032L374.409,204.8H137.591L223.42,90.368z M486.4,486.4
			H25.6v-256h460.8V486.4z"/>
	</g>
</g>
<g>
	<g>
		<path d="M435.2,256H76.8c-14.14,0-25.6,11.46-25.6,25.6v153.6c0,14.14,11.46,25.6,25.6,25.6h358.4c14.14,0,25.6-11.46,25.6-25.6
			V281.6C460.8,267.46,449.34,256,435.2,256z M435.2,435.2H76.8V281.6h358.4V435.2z"/>
	</g>
</g>
<g>
	<g>
		<path d="M201.574,354.423c-6.016-5.478-15.462-9.48-28.937-12.22c-10.129-2.039-13.986-4.352-15.428-5.589
			c-1.067-0.896-2.287-2.415-2.287-6.135c0-2.577,0.811-4.087,2.859-5.41c2.722-1.766,6.886-2.662,12.339-2.662
			c4.787,0,8.328,0.836,10.453,2.423c1.971,1.51,3.311,4.267,3.925,7.834c0.41,3.388,2.074,6.315,4.685,8.235
			c1.997,1.485,4.352,2.304,8.064,2.304c0.213,0,0.427,0,0.64,0c3.379-0.512,6.204-2.321,7.629-4.617
			c1.417-1.877,2.927-5.077,2.202-9.711c-1.271-7.799-4.446-14.234-9.498-19.166c-6.613-6.409-15.898-9.66-27.588-9.66
			c-11.341,0-20.574,2.5-27.571,7.501c-7.424,5.513-11.349,13.525-11.349,23.177c0,9.813,3.84,17.971,11.204,23.646
			c5.461,4.079,13.662,7.373,25.148,10.086c12.535,2.85,16.563,5.76,17.715,6.886c1.801,1.766,2.185,5.385,2.185,8.124
			c0,1.988-0.563,4.335-4.804,6.724c-3.584,2.091-7.612,3.098-12.271,3.098c-6.135,0-10.778-1.084-13.525-3.226
			c-2.748-2.048-4.284-5.589-4.727-11.102c-0.461-4.147-2.441-6.699-3.985-8.09c-2.039-1.835-4.599-2.825-8.277-2.825
			c-0.06,0-0.128,0-0.188,0c-2.876,0.222-5.436,1.399-7.313,3.311c-2.534,2.509-3.686,5.939-3.26,9.387
			c1.024,11.878,5.487,20.898,13.15,26.752c6.878,5.402,16.427,8.141,28.373,8.141c10.726,0,19.874-2.722,27.11-8.064
			c8.465-6.084,12.937-14.737,12.937-24.986C211.183,368.367,207.949,360.226,201.574,354.423z"/>
	</g>
</g>
<g>
	<g>
		<path d="M291.123,312.747c-6.246-7.014-14.652-10.564-24.977-10.564h-24.875c-7.663,0-12.271,3.473-14.848,6.451
			c-3.072,3.627-4.702,8.235-4.702,13.346v78.003c0,3.311,1.161,6.221,3.661,8.713c2.159,1.937,4.89,2.961,7.885,2.961
			c2.91,0,5.598-1.024,7.748-2.953c2.449-2.202,3.797-5.299,3.797-8.721v-30.822h21.325c10.359,0,18.79-3.61,24.96-10.667
			c5.623-6.246,8.474-13.909,8.474-22.758C299.571,326.724,296.721,318.976,291.123,312.747z M273.536,343.62
			c-1.263,1.425-3.516,3.311-8.388,3.311h-20.326l0.009-22.4h20.309c4.872,0,7.125,1.886,8.371,3.285
			c1.929,2.176,2.825,4.736,2.825,8.038C276.343,338.995,275.447,341.47,273.536,343.62z"/>
	</g>
</g>
<g>
	<g>
		<path d="M381.756,395.725l-30.95-84.617c-1.161-3.388-3.072-6.084-5.7-8.047c-2.534-1.886-5.504-2.876-8.559-2.876
			c-3.226,0-6.272,0.99-8.849,2.901c-2.586,1.937-4.497,4.634-5.615,7.902l-30.686,84.267c-1.51,3.413-1.502,6.989,0.026,10.052
			c1.425,2.825,3.814,4.915,6.75,5.862l2.338,0.572h1.229l3.584-0.452l1.69-0.887c2.688-1.425,4.736-3.738,5.999-6.904l8.789-24.09
			h29.346l8.772,24.303c1.135,2.859,3.063,5.129,6.374,6.963c1.485,0.64,3.063,0.964,4.651,0.964l2.56-0.222l1.161-0.375
			c3.063-0.99,5.478-3.14,6.716-5.939C382.703,402.253,382.865,399.078,381.756,395.725z M329.899,357.18l6.554-17.911l6.502,17.911
			H329.899z"/>
	</g>
</g>
</svg>